<svg height="512pt" viewBox="0 -23 512 512" width="512pt" xmlns="http://www.w3.org/2000/svg"><path d="m478.441406 171.097656c-11.523437 60.070313-64.351562 105.453125-127.78125 105.453125h-55.089844c-4.648437 0-9.140624-1.632812-12.726562-4.589843-5.78125-4.789063-15.871094-11.613282-26.421875-11.613282-10.542969 0-20.632813 6.824219-26.425781 11.613282-3.578125 2.957031-8.074219 4.589843-12.726563 4.589843h-55.089843c-63.429688 0-116.257813-45.382812-127.78125-105.453125h12.625v-88.679687h-12.402344c9.839844-41.523438 47.164062-72.417969 91.703125-72.417969h260.199219c44.53125 0 81.859374 30.894531 91.699218 72.417969h-13.25v88.679687zm0 0" fill="#819eee"/><path d="m308.269531 55h-180.277343c-28.300782 0-51.246094 22.945312-51.246094 51.246094v38.855468c0 49.757813 40.339844 90.097657 90.101562 90.097657 29.773438 0 56.175782-14.445313 72.578125-36.710938 8.410157-11.417969 25.585938-11.417969 34 0 16.398438 22.265625 42.796875 36.710938 72.574219 36.710938 49.761719 0 90.101562-40.339844 90.101562-90.097657v-38.855468c0-28.300782-22.945312-51.246094-51.246093-51.246094h-.429688v.136719zm0 0" fill="#9ce8fd"/><path d="m299.226562 276.550781v38.820313c-12.242187-8.1875-26.964843-12.957032-42.804687-12.957032-15.824219 0-30.554687 4.769532-42.796875 12.945313v-38.808594h3.644531c4.652344 0 9.152344-1.632812 12.726563-4.585937 5.792968-4.792969 15.882812-11.617188 26.425781-11.617188 10.550781 0 20.640625 6.824219 26.421875 11.617188 3.589844 2.953125 8.078125 4.585937 12.726562 4.585937zm0 0" fill="#ff8163"/><path d="m333.589844 379.574219c0 42.617187-34.546875 77.164062-77.164063 77.164062-42.617187 0-77.164062-34.546875-77.164062-77.164062 0-42.617188 34.546875-77.164063 77.164062-77.164063 42.617188 0 77.164063 34.546875 77.164063 77.164063zm0 0" fill="#ffbc70"/><path d="m183.320312 354.832031c-2.632812 7.765625-4.054687 16.09375-4.054687 24.738281 0 7.917969 1.191406 15.550782 3.40625 22.738282h-52.007813v-47.480469h52.65625zm0 0" fill="#ff8163"/><path d="m382.996094 354.832031v47.476563h-52.816406c2.214843-7.1875 3.410156-14.820313 3.410156-22.738282 0-8.644531-1.425782-16.972656-4.058594-24.738281zm0 0" fill="#ff8163"/><g fill="#d7d7e5"><path d="m431.378906 422.3125h-40.679687c-4.253907 0-7.707031-3.453125-7.707031-7.710938v-74.960937c0-4.253906 3.453124-7.707031 7.707031-7.707031h30.65625zm0 0"/><path d="m82.28125 422.3125h40.675781c4.257813 0 7.707031-3.453125 7.707031-7.710938v-74.960937c0-4.253906-3.449218-7.707031-7.707031-7.707031h-30.65625zm0 0"/><path d="m464.972656 82.414062h37.027344v88.6875h-37.027344zm0 0"/><path d="m10 82.414062h37.027344v88.6875h-37.027344zm0 0"/></g><path d="m127.992188 65h180.277343c5.523438 0 10-4.476562 10-10 0-5.519531-4.476562-10-10-10h-180.277343c-33.769532 0-61.246094 27.476562-61.246094 61.25v38.851562c0 55.195313 44.90625 100.101563 100.101562 100.101563 31.675782 0 61.816406-15.246094 80.628906-40.78125 2.101563-2.855469 5.363282-4.492187 8.949219-4.492187 3.582031 0 6.84375 1.636718 8.945313 4.492187 18.8125 25.535156 48.953125 40.78125 80.628906 40.78125 55.195312 0 100.101562-44.90625 100.101562-100.101563v-38.851562c0-16.359375-6.371093-31.742188-17.941406-43.308594-11.566406-11.570312-26.945312-17.941406-43.308594-17.941406h-.425781c-5.523437 0-10 4.480469-10 10v.136719c0 5.523437 4.476563 10 10 10 .53125 0 1.050781-.039063 1.5625-.121094 10.589844.285156 20.507813 4.542969 28.03125 12.066406 7.789063 7.789063 12.078125 18.148438 12.078125 29.167969v38.851562c0 44.167969-35.933594 80.101563-80.097656 80.101563-25.347656 0-49.46875-12.203125-64.523438-32.644531-5.914062-8.027344-15.046874-12.632813-25.054687-12.632813s-19.136719 4.605469-25.050781 12.632813c-15.058594 20.441406-39.179688 32.644531-64.523438 32.644531-44.167968 0-80.101562-35.933594-80.101562-80.101563v-38.851562c0-22.746094 18.503906-41.25 41.246094-41.25zm0 0"/><path d="m214.339844 368.402344c-5.523438 0-10 4.476562-10 10 0 5.523437 4.476562 10 10 10h84.171875c5.523437 0 10-4.476563 10-10 0-5.523438-4.476563-10-10-10zm0 0"/><path d="m239.058594 354.332031h34.738281c5.519531 0 10-4.476562 10-10 0-5.519531-4.480469-10-10-10h-34.738281c-5.523438 0-10 4.480469-10 10 0 5.523438 4.476562 10 10 10zm0 0"/><path d="m273.796875 402.804688h-34.738281c-5.523438 0-10 4.480468-10 10 0 5.523437 4.476562 10 10 10h34.738281c5.519531 0 10-4.476563 10-10 0-5.519532-4.480469-10-10-10zm0 0"/><path d="m502 72.414062h-16.203125c-6.226563-19.371093-18.15625-36.765624-34.164063-49.582031-18.386718-14.722656-41.511718-22.832031-65.105468-22.832031h-260.203125c-23.601563 0-46.726563 8.109375-65.113281 22.832031-16.011719 12.816407-27.9375 30.210938-34.164063 49.582031h-17.046875c-5.523438 0-10 4.480469-10 10v88.6875c0 5.519532 4.476562 10 10 10h16.394531c4.21875 16.640626 11.417969 32.207032 21.464844 46.359376 3.195313 4.503906 9.4375 5.5625 13.941406 2.363281 4.503907-3.195313 5.5625-9.4375 2.367188-13.941407-7.609375-10.71875-13.316407-22.378906-17.039063-34.785156.046875 0 .089844-.007812.132813-.007812.292969-.007813.585937-.023438.875-.054688.027343-.003906.058593-.007812.089843-.011718.304688-.039063.601563-.085938.898438-.144532.015625-.003906.027344-.011718.042969-.011718 4.492187-.980469 7.859375-4.980469 7.859375-9.765626v-88.6875c0-4.957031-3.824219-9.304687-8.753906-9.921874 5.402343-13.222657 14.171874-25.03125 25.4375-34.050782 15.070312-12.0625 33.265624-18.441406 52.613281-18.441406h260.199219c19.347656 0 37.539062 6.378906 52.609374 18.441406 11.242188 9.003906 20 20.789063 25.40625 33.984375-5.261718.226563-9.566406 4.710938-9.566406 9.988281v88.6875c0 5.519532 4.476563 10 10 10h.730469c-15.058594 50.171876-61.636719 85.449219-115.042969 85.449219h-51.433594c-3.585937 0-7.042968.152344-10.003906-2.289062-7.660156-6.347657-19.574218-13.914063-32.804687-13.914063-13.207031 0-25.125 7.5625-32.792969 13.90625-2.964844 2.445313-6.414062 2.296875-10.003906 2.296875h-51.441406c-14.78125 0-29.21875-2.65625-42.914063-7.898437-5.160156-1.96875-10.9375.609375-12.914063 5.769531-1.972656 5.15625.609376 10.9375 5.765626 12.914063 15.984374 6.113281 32.828124 9.214843 50.0625 9.214843h41.445312v23.722657c-11.742188 8.96875-21.148438 20.851562-27.128906 34.558593h-35.832032v-5.1875c0-9.765625-7.941406-17.710937-17.707031-17.710937h-30.65625c-5.097656 0-9.375 3.835937-9.9375 8.898437l-10.019531 90.378907c-.316406 2.824218.589844 5.652343 2.488281 7.769531 1.894531 2.121093 4.605469 3.332031 7.449219 3.332031h40.675781c9.765625 0 17.707031-7.945312 17.707031-17.710938v-2.292968h34.980469c12.96875 31.886718 44.289063 54.429687 80.78125 54.429687 36.488281 0 67.808594-22.542969 80.777344-54.429687h35.789063v2.292968c0 9.765626 7.941406 17.710938 17.707031 17.710938h40.675781c2.84375 0 5.554688-1.210938 7.449219-3.332031 1.898437-2.117188 2.804687-4.945313 2.492187-7.769531l-10.023437-90.378907c-.5625-5.0625-4.84375-8.898437-9.9375-8.898437h-30.65625c-9.765625 0-17.707031 7.945312-17.707031 17.710937v5.1875h-36.636719c-5.980469-13.707031-15.382813-25.589843-27.128907-34.558593v-23.722657h41.433594c64.316406 0 120.136719-43.871093 135.785156-105.449219h15.554688c5.523438 0 10-4.480468 10-10v-88.6875c0-5.519531-4.476562-10-10-10zm-482 20h14.601562c.007813 0 .011719.003907.019532.003907h2.402344v68.679687h-2.625c-.015626 0-.035157.003906-.050782.003906h-14.347656zm100.664062 319.898438h-27.214843l7.804687-70.378906h19.410156zm49.523438-20.003906h-29.523438v-27.480469h29.84375c-.027343.15625-.042968.316406-.070312.46875-.167969 1.015625-.324219 2.035156-.457031 3.0625-1.015625 7.941406-.953125 16.027344.207031 23.949219zm242.214844-50.375 7.804687 70.378906h-27.214843v-9.910156c0-.03125.003906-.0625.003906-.09375v-47.480469c0-.03125-.003906-.0625-.003906-.09375v-12.800781zm-70.054688 22.898437h30.644532v27.476563h-30.332032c1.332032-9.09375 1.234375-18.417969-.3125-27.476563zm-21.871094-5.46875c3.78125 11.949219 4.097657 24.921875.972657 37.058594-7.496094 28.90625-33.804688 50.316406-65.023438 50.316406s-57.527343-21.410156-65.023437-50.316406c-3.761719-14.609375-2.492188-30.347656 3.65625-44.125 5.03125-11.273437 13.195312-21.066406 23.359375-28.070313 11.191406-7.710937 24.746093-11.953124 38.355469-11.804687 14.066406.148437 27.804687 4.574219 39.175781 12.882813 10.226562 7.46875 18.261719 17.804687 22.933593 29.578124.582032 1.472657 1.117188 2.96875 1.59375 4.480469zm-34.457031-61.777343c-15.769531-5.691407-33.101562-6.714844-49.429687-2.894532-4.410156 1.03125-8.765625 2.398438-12.964844 4.105469 0-4.128906 0-8.257813 0-12.386719 0-.621094.101562-.660156.714844-.820312.574218-.148438 1.171875-.207032 1.742187-.378906 6.390625-1.890626 13.34375-8.203126 17.527344-10.648438 3.527344-2.0625 7.488281-3.828125 11.609375-4.164062 3.890625-.316407 7.765625.984374 11.222656 2.667968 2.347656 1.140625 11.746094 8.738282 19.925782 12.019532.714843.289062 1.816406.273437 2.496093.617187.472657.238281.363281 1.816406.363281 2.566406v4.261719 6.269531c-1.058593-.433593-2.132812-.828125-3.207031-1.214843zm205.980469-136.484376h-13.503906c-.019532 0-.035156-.003906-.054688-.003906h-3.46875v-68.683594h3.25.015625 13.761719zm0 0"/><path d="m73.609375 254.617188c2.363281 3.515624 6.804687 5.207031 10.90625 4.101562 3.984375-1.074219 6.9375-4.570312 7.363281-8.671875.421875-4.085937-1.859375-8.140625-5.535156-9.949219-3.8125-1.871094-8.484375-1.09375-11.496094 1.898438-3.335937 3.328125-3.839844 8.714844-1.238281 12.621094zm0 0"/><path d="m338.351562 60.550781c2.332032 3.464844 6.679688 5.171875 10.746094 4.148438 4.003906-1.011719 7.011719-4.460938 7.503906-8.554688.492188-4.140625-1.777343-8.273437-5.511718-10.105469-3.800782-1.867187-8.488282-1.101562-11.488282 1.890626-3.339843 3.328124-3.859374 8.699218-1.25 12.621093zm0 0"/></svg>